<svg xmlns="http://www.w3.org/2000/svg" width="31" height="33.944" viewBox="0 0 31 33.944">
  <g id="패스_7701" data-name="패스 7701" transform="translate(0 12.707)" fill="#191919">
    <path d="M 30 20.23480033874512 L 20.11553382873535 20.23480033874512 L 19.98460960388184 14.39481067657471 L 19.96269035339355 13.41722011566162 L 18.98485946655273 13.41722011566162 L 11.93848037719727 13.41722011566162 L 10.93848037719727 13.41722011566162 L 10.93848037719727 14.41722011566162 L 10.93848037719727 20.23480033874512 L 1 20.23480033874512 L 1 -2.293136835098267 L 15.34916591644287 -11.52108001708984 L 30 -2.287196636199951 L 30 20.23480033874512 Z" stroke="none"/>
    <path d="M 15.35457324981689 -10.33563232421875 L 2 -1.747303009033203 L 2 19.23479080200195 L 9.938480377197266 19.23479080200195 L 9.938480377197266 12.41721248626709 L 20.94052886962891 12.41721248626709 L 21.09336853027344 19.23479080200195 L 29 19.23479080200195 L 29 -1.73541259765625 L 15.35457324981689 -10.33563232421875 M 15.34375 -12.7065486907959 L 31 -2.838977813720703 L 31 21.23479080200195 L 19.13769912719727 21.23479080200195 L 18.98485946655273 14.41721153259277 L 11.93848037719727 14.41721153259277 C 11.93848037719727 14.41721153259277 11.93848037719727 21.21868133544922 11.93848037719727 21.23479080200195 C 11.93802833557129 21.23480033874512 11.93758201599121 21.23480987548828 11.93713188171387 21.23481750488281 C 11.93801116943359 21.23480033874512 11.93848037719727 21.23479080200195 11.93848037719727 21.23479080200195 L 0 21.23479080200195 L 0 -2.838977813720703 L 15.34375 -12.7065486907959 Z M 11.93713188171387 21.23481750488281 C 11.93712043762207 21.23481750488281 11.93710708618164 21.23481750488281 11.93709564208984 21.23481750488281 C 11.93711280822754 21.23481750488281 11.93711471557617 21.23481750488281 11.93713188171387 21.23481750488281 Z M 11.93709564208984 21.23481750488281 C 11.93584823608398 21.23484039306641 11.93459129333496 21.23486328125 11.9333667755127 21.23488616943359 C 11.93496322631836 21.2348575592041 11.93622589111328 21.23483276367188 11.93709564208984 21.23481750488281 Z M 11.9333667755127 21.23488616943359 C 11.93324089050293 21.23488998413086 11.93311309814453 21.23489189147949 11.9329833984375 21.23489379882812 C 11.93311500549316 21.23489189147949 11.93323516845703 21.23488998413086 11.9333667755127 21.23488616943359 Z M 11.9329833984375 21.23489379882812 C 11.93288612365723 21.23489570617676 11.93277931213379 21.23489761352539 11.93268203735352 21.23489952087402 C 11.93278503417969 21.23489761352539 11.93288421630859 21.23489570617676 11.9329833984375 21.23489379882812 Z M 11.93268203735352 21.23489952087402 C 11.93264389038086 21.23490142822266 11.93260383605957 21.23490142822266 11.93256568908691 21.23490142822266 C 11.93259811401367 21.23490142822266 11.93264961242676 21.23490142822266 11.93268203735352 21.23489952087402 Z M 11.93256568908691 21.23490142822266 C 11.93186569213867 21.23491477966309 11.93117141723633 21.23492813110352 11.93047904968262 21.23493957519531 C 11.93122100830078 21.23492622375488 11.93191528320312 21.23491287231445 11.93256568908691 21.23490142822266 Z M 11.93047904968262 21.23493957519531 C 11.93047332763672 21.23493957519531 11.93045806884766 21.23494148254395 11.93047904968262 21.23493957519531 Z M 11.93046760559082 21.23493957519531 C 11.92998504638672 21.23494911193848 11.92947387695312 21.23495864868164 11.92899322509766 21.2349681854248 C 11.92950439453125 21.23495864868164 11.92999458312988 21.23494911193848 11.93046760559082 21.23493957519531 Z M 11.92899322509766 21.2349681854248 C 11.9289493560791 21.23497009277344 11.92890167236328 21.23497009277344 11.92885780334473 21.23497009277344 C 11.92890548706055 21.23497009277344 11.92894554138184 21.23497009277344 11.92899322509766 21.2349681854248 Z M 11.92885780334473 21.23497009277344 C 11.92834663391113 21.2349796295166 11.92782974243164 21.23498916625977 11.92732238769531 21.23499870300293 C 11.92785263061523 21.23498916625977 11.92835998535156 21.2349796295166 11.92885780334473 21.23497009277344 Z M 11.92732238769531 21.23499870300293 C 11.92726516723633 21.23500061035156 11.92720603942871 21.23500061035156 11.92714881896973 21.2350025177002 C 11.92721176147461 21.23500061035156 11.92725944519043 21.23500061035156 11.92732238769531 21.23499870300293 Z M 11.92714881896973 21.2350025177002 C 11.92452239990234 21.23505020141602 11.92194938659668 21.23509979248047 11.91943168640137 21.23514556884766 C 11.92225456237793 21.23509216308594 11.92484855651855 21.23504447937012 11.92714881896973 21.2350025177002 Z M 11.91943168640137 21.23514556884766 C 11.91941070556641 21.23514556884766 11.91939544677734 21.23514556884766 11.91937446594238 21.23514556884766 C 11.91938972473145 21.23514556884766 11.9194164276123 21.23514556884766 11.91943168640137 21.23514556884766 Z M 11.91937446594238 21.23514556884766 C 11.91281127929688 21.23526763916016 11.90663719177246 21.23538208007812 11.90079879760742 21.2354907989502 C 11.90757751464844 21.23536491394043 11.91391372680664 21.23524856567383 11.91937446594238 21.23514556884766 Z M 11.90079879760742 21.2354907989502 C 11.90064811706543 21.23549270629883 11.90049743652344 21.23549652099609 11.90034675598145 21.23549842834473 C 11.90049362182617 21.23549652099609 11.90065002441406 21.23549270629883 11.90079879760742 21.2354907989502 Z M 11.90034675598145 21.23549842834473 C 11.90026473999023 21.23550033569336 11.90020370483398 21.23550033569336 11.90012359619141 21.23550415039062 C 11.90020179748535 21.23550033569336 11.90026664733887 21.23550033569336 11.90034675598145 21.23549842834473 Z M 11.90012359619141 21.23550415039062 C 11.89975166320801 21.23550987243652 11.89937973022461 21.23551559448242 11.89900588989258 21.23552322387695 C 11.89936447143555 21.23551750183105 11.89976119995117 21.23550987243652 11.90012359619141 21.23550415039062 Z M 11.89900588989258 21.23552322387695 C 11.89548873901367 21.23558807373047 11.89213371276855 21.23565101623535 11.88887596130371 21.23571014404297 C 11.89231872558594 21.23564910888672 11.89570999145508 21.2355842590332 11.89900588989258 21.23552322387695 Z M 11.88887596130371 21.23571014404297 C 11.88886070251465 21.2357120513916 11.88884162902832 21.2357120513916 11.88882446289062 21.2357120513916 C 11.88883781433105 21.2357120513916 11.88886451721191 21.2357120513916 11.88887596130371 21.23571014404297 Z M 11.88882446289062 21.2357120513916 C 11.88741874694824 21.23573875427246 11.88604927062988 21.23576354980469 11.88469123840332 21.23579025268555 C 11.88607406616211 21.23576354980469 11.8874568939209 21.23573684692383 11.88882446289062 21.2357120513916 Z M 11.88469123840332 21.23579025268555 C 11.88460731506348 21.23579025268555 11.88451957702637 21.23579216003418 11.88443756103516 21.23579406738281 C 11.88451957702637 21.23579216003418 11.88460731506348 21.23579025268555 11.88469123840332 21.23579025268555 Z M 11.88443756103516 21.23579406738281 C 11.88209342956543 21.23583602905273 11.87980651855469 21.23587989807129 11.87760162353516 21.23591995239258 C 11.87988662719727 21.23587799072266 11.88216590881348 21.23583602905273 11.88443756103516 21.23579406738281 Z M 11.87760162353516 21.23591995239258 C 11.87745094299316 21.23592376708984 11.87730026245117 21.23592567443848 11.87714958190918 21.23592758178711 C 11.87730598449707 21.23592567443848 11.87744522094727 21.23592376708984 11.87760162353516 21.23591995239258 Z M 11.87714958190918 21.23592758178711 C 11.8587474822998 21.23627090454102 11.84515762329102 21.23652267456055 11.83557319641113 21.23669815063477 C 11.8469295501709 21.23648834228516 11.86202621459961 21.23620986938477 11.87714958190918 21.23592758178711 Z M 11.83557319641113 21.23669815063477 C 11.83548927307129 21.23670196533203 11.83540725708008 21.23670196533203 11.83532333374023 21.23670387268066 C 11.83541107177734 21.23670196533203 11.83548545837402 21.23670196533203 11.83557319641113 21.23669815063477 Z M 11.83532333374023 21.23670387268066 C 11.82925987243652 21.23681640625 11.82480621337891 21.23690032958984 11.82175636291504 21.2369556427002 C 11.82505226135254 21.23689460754395 11.82973098754883 21.23680877685547 11.83532333374023 21.23670387268066 Z M 11.82175636291504 21.2369556427002 C 11.82170486450195 21.23695755004883 11.82165718078613 21.23695755004883 11.82160758972168 21.23695755004883 C 11.82165718078613 21.23695755004883 11.82170486450195 21.23695755004883 11.82175636291504 21.2369556427002 Z M 11.82160758972168 21.23695755004883 C 11.82080268859863 21.23697280883789 11.82009696960449 21.23698616027832 11.81949043273926 21.23699760437012 C 11.82011032104492 21.23698616027832 11.8208179473877 21.23697280883789 11.82160758972168 21.23695755004883 Z M 11.81949043273926 21.23699760437012 C 11.81945037841797 21.23699951171875 11.81941032409668 21.23699951171875 11.81937217712402 21.23699951171875 C 11.81941032409668 21.23699951171875 11.81945037841797 21.23699951171875 11.81949043273926 21.23699760437012 Z M 11.81937217712402 21.23699951171875 C 11.81933975219727 21.23699951171875 11.81930732727051 21.23700141906738 11.81927680969238 21.23700141906738 C 11.81930732727051 21.23700141906738 11.81933975219727 21.23699951171875 11.81937217712402 21.23699951171875 Z M 11.81927680969238 21.23700141906738 C 11.81916427612305 21.23700332641602 11.81905174255371 21.23700714111328 11.81894683837891 21.23700714111328 C 11.81905364990234 21.23700714111328 11.81916236877441 21.23700332641602 11.81927680969238 21.23700141906738 Z M 11.81894683837891 21.23700714111328 C 11.81852149963379 21.23701477050781 11.81815147399902 21.23702239990234 11.81783866882324 21.23702812194824 C 11.81815719604492 21.23702239990234 11.81852531433105 21.23701477050781 11.81894683837891 21.23700714111328 Z M 11.81783866882324 21.23702812194824 C 11.81782722473145 21.23702812194824 11.81781578063965 21.23703002929688 11.81780433654785 21.23703002929688 C 11.81781578063965 21.23703002929688 11.81782531738281 21.23702812194824 11.81783866882324 21.23702812194824 Z M 11.81780433654785 21.23703002929688 C 11.8176383972168 21.23703193664551 11.81748580932617 21.23703384399414 11.81735038757324 21.23703765869141 C 11.8174877166748 21.23703384399414 11.8176383972168 21.23703193664551 11.81780433654785 21.23703002929688 Z M 11.81735038757324 21.23703765869141 C 11.81734848022461 21.23703765869141 11.81734275817871 21.23703765869141 11.81734085083008 21.23703765869141 C 11.81734466552734 21.23703765869141 11.81734657287598 21.23703765869141 11.81735038757324 21.23703765869141 Z M 11.81734085083008 21.23703765869141 C 11.81730079650879 21.23703765869141 11.81726264953613 21.23703765869141 11.81722450256348 21.23703956604004 C 11.81726264953613 21.23703765869141 11.81730079650879 21.23703765869141 11.81734085083008 21.23703765869141 Z M 11.81722450256348 21.23703956604004 C 11.81720352172852 21.23704147338867 11.81718444824219 21.23704147338867 11.81716346740723 21.23704147338867 C 11.81718444824219 21.23704147338867 11.81720352172852 21.23704147338867 11.81722450256348 21.23703956604004 Z M 11.81716346740723 21.23704147338867 C 11.81698226928711 21.23704528808594 11.81683349609375 21.23704719543457 11.81672096252441 21.2370491027832 C 11.81683540344238 21.23704719543457 11.81698417663574 21.23704528808594 11.81716346740723 21.23704147338867 Z M 11.81672096252441 21.2370491027832 C 11.8166561126709 21.2370491027832 11.81660079956055 21.23705101013184 11.81655883789062 21.23705291748047 C 11.81660079956055 21.23705101013184 11.8166561126709 21.2370491027832 11.81672096252441 21.2370491027832 Z M 11.81655883789062 21.23705291748047 C 11.81647872924805 21.23705291748047 11.81644058227539 21.23705291748047 11.81644058227539 21.23705291748047 C 11.81644058227539 21.23705291748047 11.81648063659668 21.23705291748047 11.81655883789062 21.23705291748047 Z" stroke="none" fill="#191919"/>
  </g>
</svg>
