<svg xmlns="http://www.w3.org/2000/svg" width="30.192" height="33.059" viewBox="0 0 30.192 33.059">
  <g id="패스_7701" data-name="패스 7701" transform="translate(0 12.707)" fill="#fff">
    <path d="M 29.19240379333496 19.35057640075684 L 19.61696815490723 19.35057640075684 L 19.49003410339355 13.68819713592529 L 19.46811294555664 12.71060657501221 L 18.49028396606445 12.71060657501221 L 11.62746334075928 12.71060657501221 L 10.62746334075928 12.71060657501221 L 10.62746334075928 13.71060657501221 L 10.62746334075928 19.35057640075684 L 1.000003814697266 19.35057640075684 L 1.000003814697266 -2.550200462341309 L 14.94944000244141 -11.52108287811279 L 29.19240379333496 -2.544260263442993 L 29.19240379333496 19.35057640075684 Z" stroke="none"/>
    <path d="M 14.95485210418701 -10.33563327789307 L 2.000003814697266 -2.004369735717773 L 2.000003814697266 18.3505744934082 L 9.627464294433594 18.3505744934082 L 9.627464294433594 11.71060466766357 L 20.44595336914062 11.71060466766357 L 20.59480285644531 18.3505744934082 L 28.19240379333496 18.3505744934082 L 28.19240379333496 -1.992486000061035 L 14.95485210418701 -10.33563327789307 M 14.94402408599854 -12.70654582977295 L 30.19240379333496 -3.09604549407959 L 30.19240379333496 20.3505744934082 L 18.63913345336914 20.3505744934082 L 18.49028396606445 13.71060466766357 L 11.62746429443359 13.71060466766357 C 11.62746429443359 13.71060466766357 11.62746429443359 20.33488464355469 11.62746429443359 20.3505744934082 C 11.62703895568848 20.35058212280273 11.62661743164062 20.35058975219727 11.62619400024414 20.3505973815918 C 11.62702178955078 20.35058212280273 11.62746429443359 20.3505744934082 11.62746429443359 20.3505744934082 L 3.814697265625e-06 20.3505744934082 L 3.814697265625e-06 -3.09604549407959 L 14.94402408599854 -12.70654582977295 Z M 11.62619400024414 20.3505973815918 C 11.62616157531738 20.35059928894043 11.62612724304199 20.35059928894043 11.6260929107666 20.35060119628906 C 11.62612533569336 20.35059928894043 11.62616157531738 20.35059928894043 11.62619400024414 20.3505973815918 Z M 11.6260929107666 20.35060119628906 C 11.62492561340332 20.35062217712402 11.62375259399414 20.35064315795898 11.62260627746582 20.35066604614258 C 11.62409019470215 20.35063743591309 11.62526893615723 20.35061645507812 11.6260929107666 20.35060119628906 Z M 11.62260627746582 20.35066604614258 C 11.62242698669434 20.35066795349121 11.62224006652832 20.35067176818848 11.62205123901367 20.35067367553711 C 11.62224197387695 20.35067176818848 11.62241363525391 20.35066795349121 11.62260627746582 20.35066604614258 Z M 11.62205123901367 20.35067367553711 C 11.62173461914062 20.35068130493164 11.62141418457031 20.35068702697754 11.62109756469727 20.35069274902344 C 11.62142944335938 20.35068702697754 11.62174415588379 20.35068130493164 11.62205123901367 20.35067367553711 Z M 11.62109756469727 20.35069274902344 C 11.62108039855957 20.35069274902344 11.62106132507324 20.35069274902344 11.62104225158691 20.35069274902344 C 11.62105941772461 20.35069274902344 11.6210823059082 20.35069274902344 11.62109756469727 20.35069274902344 Z M 11.62104225158691 20.35069274902344 C 11.62058448791504 20.3507022857666 11.62011909484863 20.35071182250977 11.61966514587402 20.3507194519043 C 11.62014389038086 20.35071182250977 11.62060356140137 20.3507022857666 11.62104225158691 20.35069274902344 Z M 11.61966514587402 20.3507194519043 L 11.61966323852539 20.3507194519043 C 11.61967849731445 20.3507194519043 11.61964988708496 20.3507194519043 11.61966514587402 20.3507194519043 Z M 11.61966323852539 20.3507194519043 C 11.61916160583496 20.35072898864746 11.6186580657959 20.35073852539062 11.61816024780273 20.35074615478516 C 11.61868095397949 20.35073852539062 11.61918067932129 20.35072708129883 11.61966323852539 20.3507194519043 Z M 11.61816024780273 20.35074615478516 C 11.61814880371094 20.35074615478516 11.61813163757324 20.35074806213379 11.61811828613281 20.35074806213379 L 11.61816024780273 20.35074615478516 Z M 11.61811828613281 20.35074806213379 C 11.61757469177246 20.35075759887695 11.61705589294434 20.35076904296875 11.61651611328125 20.35077667236328 C 11.61706924438477 20.35076713562012 11.61760139465332 20.35075759887695 11.61811828613281 20.35074806213379 Z M 11.61651611328125 20.35077667236328 C 11.61649894714355 20.35077667236328 11.61647796630859 20.35077857971191 11.6164608001709 20.35077857971191 C 11.61647605895996 20.35077857971191 11.61650085449219 20.35077667236328 11.61651611328125 20.35077667236328 Z M 11.6164608001709 20.35077857971191 C 11.61396408081055 20.35082626342773 11.61150550842285 20.35087203979492 11.60910987854004 20.35091400146484 C 11.6117992401123 20.35086441040039 11.6142635345459 20.3508186340332 11.6164608001709 20.35077857971191 Z M 11.60910987854004 20.35091400146484 C 11.60882949829102 20.35092163085938 11.60854339599609 20.35092544555664 11.6082592010498 20.35093116760254 C 11.60855293273926 20.35092544555664 11.60881423950195 20.35092163085938 11.60910987854004 20.35091400146484 Z M 11.6082592010498 20.35093116760254 C 11.60787582397461 20.35093688964844 11.60749626159668 20.35094451904297 11.60711669921875 20.3509521484375 C 11.60750007629395 20.35094451904297 11.60788345336914 20.35093688964844 11.6082592010498 20.35093116760254 Z M 11.60711669921875 20.3509521484375 C 11.60684967041016 20.35095596313477 11.60659027099609 20.35096168518066 11.60632133483887 20.35096740722656 C 11.60658264160156 20.35096168518066 11.60685348510742 20.35095596313477 11.60711669921875 20.3509521484375 Z M 11.60632133483887 20.35096740722656 C 11.60575294494629 20.35097694396973 11.60516929626465 20.35098838806152 11.6046085357666 20.35099792480469 C 11.60518264770508 20.35098838806152 11.60576057434082 20.35097694396973 11.60632133483887 20.35096740722656 Z M 11.6046085357666 20.35099792480469 C 11.60457611083984 20.35099792480469 11.60454368591309 20.35099983215332 11.60451316833496 20.35100173950195 C 11.60455703735352 20.35099983215332 11.60456466674805 20.35099983215332 11.6046085357666 20.35099792480469 Z M 11.60451316833496 20.35100173950195 C 11.60096168518066 20.35106658935547 11.59749221801758 20.35113143920898 11.59416961669922 20.35119247436523 C 11.59780693054199 20.35112380981445 11.60127449035645 20.35106086730957 11.60451316833496 20.35100173950195 Z M 11.59416961669922 20.35119247436523 C 11.59416198730469 20.35119247436523 11.59411811828613 20.35119247436523 11.59416961669922 20.35119247436523 Z M 11.59415435791016 20.35119247436523 C 11.59404754638672 20.35119438171387 11.59391975402832 20.3511962890625 11.59381103515625 20.35120010375977 C 11.59392547607422 20.3511962890625 11.59404182434082 20.35119438171387 11.59415435791016 20.35119247436523 Z M 11.59381103515625 20.35120010375977 C 11.59377670288086 20.35120010375977 11.59373664855957 20.35120010375977 11.59370231628418 20.35120010375977 C 11.59374237060547 20.35120010375977 11.59377098083496 20.35120010375977 11.59381103515625 20.35120010375977 Z M 11.59370231628418 20.35120010375977 C 11.59333992004395 20.3512077331543 11.59298706054688 20.35121536254883 11.59262657165527 20.35122108459473 C 11.59298706054688 20.35121536254883 11.59334564208984 20.3512077331543 11.59370231628418 20.35120010375977 Z M 11.59262657165527 20.35122108459473 C 11.5920467376709 20.35123062133789 11.59146118164062 20.35124206542969 11.59087181091309 20.35125350952148 C 11.59145164489746 20.35124206542969 11.592041015625 20.35123062133789 11.59262657165527 20.35122108459473 Z M 11.59087181091309 20.35125350952148 C 11.59084701538086 20.35125350952148 11.5908203125 20.35125350952148 11.59079551696777 20.35125350952148 C 11.5908203125 20.35125350952148 11.59084701538086 20.35125350952148 11.59087181091309 20.35125350952148 Z M 11.59079551696777 20.35125350952148 C 11.59064674377441 20.35125732421875 11.59050559997559 20.35126113891602 11.59035873413086 20.35126304626465 C 11.59050178527832 20.35126113891602 11.59065055847168 20.35125732421875 11.59079551696777 20.35125350952148 Z M 11.59035873413086 20.35126304626465 C 11.59021377563477 20.35126495361328 11.59008407592773 20.35126876831055 11.58993911743164 20.35127067565918 C 11.59007835388184 20.35126876831055 11.5902214050293 20.35126495361328 11.59035873413086 20.35126304626465 Z M 11.58993911743164 20.35127067565918 C 11.58988380432129 20.35127258300781 11.58982849121094 20.35127258300781 11.58977317810059 20.35127258300781 C 11.58982467651367 20.35127258300781 11.58988761901855 20.35127258300781 11.58993911743164 20.35127067565918 Z M 11.58977317810059 20.35127258300781 C 11.58956336975098 20.35127639770508 11.5893726348877 20.35128021240234 11.58916473388672 20.35128402709961 C 11.58936882019043 20.35128021240234 11.58956909179688 20.35127639770508 11.58977317810059 20.35127258300781 Z M 11.58916473388672 20.35128402709961 C 11.58904266357422 20.35128784179688 11.58892250061035 20.35128974914551 11.58879852294922 20.35129165649414 C 11.58891487121582 20.35128974914551 11.58904838562012 20.35128784179688 11.58916473388672 20.35128402709961 Z M 11.58879852294922 20.35129165649414 C 11.58646774291992 20.35133361816406 11.58419227600098 20.35137748718262 11.58197975158691 20.35141754150391 C 11.58428764343262 20.35137557983398 11.5865650177002 20.35133361816406 11.58879852294922 20.35129165649414 Z M 11.58197975158691 20.35141754150391 C 11.58189964294434 20.35141944885254 11.58181381225586 20.35142135620117 11.58173370361328 20.3514232635498 C 11.58181953430176 20.35142135620117 11.58189392089844 20.35141944885254 11.58197975158691 20.35141754150391 Z M 11.58173370361328 20.3514232635498 C 11.58157539367676 20.35142517089844 11.58139038085938 20.3514289855957 11.58123207092285 20.35143280029297 C 11.58140182495117 20.3514289855957 11.58156394958496 20.35142517089844 11.58173370361328 20.3514232635498 Z M 11.58123207092285 20.35143280029297 C 11.58106231689453 20.35143661499023 11.58088874816895 20.35143852233887 11.58071708679199 20.3514404296875 C 11.58088874816895 20.35143852233887 11.5810604095459 20.35143661499023 11.58123207092285 20.35143280029297 Z M 11.58071708679199 20.3514404296875 C 11.58021926879883 20.3514518737793 11.5797290802002 20.35145950317383 11.5792350769043 20.35146903991699 C 11.5797290802002 20.35145950317383 11.58022689819336 20.3514518737793 11.58071708679199 20.3514404296875 Z M 11.5792350769043 20.35146903991699 C 11.57908058166504 20.35147094726562 11.57893180847168 20.35147476196289 11.57877731323242 20.35147857666016 C 11.57893371582031 20.35147476196289 11.57907867431641 20.35147094726562 11.5792350769043 20.35146903991699 Z M 11.57877731323242 20.35147857666016 C 11.5779857635498 20.35149192810059 11.57719421386719 20.35150718688965 11.57641983032227 20.35152053833008 C 11.57720756530762 20.35150718688965 11.57799339294434 20.35149192810059 11.57877731323242 20.35147857666016 Z M 11.57641983032227 20.35152053833008 C 11.57639312744141 20.35152053833008 11.57636070251465 20.35152244567871 11.57633399963379 20.35152435302734 C 11.57636833190918 20.35152244567871 11.57638549804688 20.35152244567871 11.57641983032227 20.35152053833008 Z M 11.57633399963379 20.35152435302734 C 11.57440948486328 20.35155868530273 11.57252502441406 20.35159301757812 11.57069396972656 20.35162734985352 C 11.57258033752441 20.35159301757812 11.574462890625 20.35155868530273 11.57633399963379 20.35152435302734 Z M 11.57069396972656 20.35162734985352 C 11.57058143615723 20.35162925720215 11.57046127319336 20.35163116455078 11.57034683227539 20.35163497924805 C 11.57045936584473 20.35163116455078 11.57058334350586 20.35162925720215 11.57069396972656 20.35162734985352 Z M 11.57034683227539 20.35163497924805 C 11.56998062133789 20.35164070129395 11.56961822509766 20.35164642333984 11.56925582885742 20.35165405273438 C 11.56962013244629 20.35164642333984 11.56998252868652 20.35164070129395 11.57034683227539 20.35163497924805 Z M 11.56925582885742 20.35165405273438 C 11.56920051574707 20.35165405273438 11.56915664672852 20.35165596008301 11.5691032409668 20.35165786743164 C 11.56915855407715 20.35165596008301 11.56920051574707 20.35165405273438 11.56925582885742 20.35165405273438 Z M 11.5691032409668 20.35165786743164 C 11.56880569458008 20.35166168212891 11.56851196289062 20.35166931152344 11.56821823120117 20.3516731262207 C 11.56851196289062 20.35166931152344 11.56880950927734 20.35166168212891 11.5691032409668 20.35165786743164 Z M 11.56821823120117 20.3516731262207 C 11.56754875183105 20.3516845703125 11.56687355041504 20.35169982910156 11.56620407104492 20.35171127319336 C 11.56686782836914 20.35169982910156 11.56754302978516 20.35168647766113 11.56821823120117 20.3516731262207 Z M 11.56620407104492 20.35171127319336 C 11.56196212768555 20.3517894744873 11.55799865722656 20.35186386108398 11.55428504943848 20.35193252563477 C 11.55819892883301 20.35186004638672 11.56219673156738 20.35178375244141 11.56620407104492 20.35171127319336 Z M 11.55428504943848 20.35193252563477 C 11.55425453186035 20.35193252563477 11.55422592163086 20.35193252563477 11.5541934967041 20.35193252563477 C 11.55422210693359 20.35193252563477 11.55425834655762 20.35193252563477 11.55428504943848 20.35193252563477 Z M 11.5541934967041 20.35193252563477 C 11.52611541748047 20.35245513916016 11.51285934448242 20.35269927978516 11.50948905944824 20.35276222229004 C 11.51374053955078 20.35268402099609 11.53268623352051 20.35233306884766 11.5541934967041 20.35193252563477 Z M 11.50948905944824 20.35276222229004 C 11.50948524475098 20.35276412963867 11.50948333740234 20.35276412963867 11.50947952270508 20.35276412963867 C 11.50948333740234 20.35276412963867 11.50948715209961 20.35276412963867 11.50948905944824 20.35276222229004 Z M 11.50947952270508 20.35276412963867 C 11.50888442993164 20.35277366638184 11.50860214233398 20.35277938842773 11.50860214233398 20.35277938842773 C 11.50860214233398 20.35277938842773 11.5089054107666 20.35277366638184 11.50947952270508 20.35276412963867 Z" stroke="none" fill="#191919"/>
  </g>
</svg>
