<svg id="그룹_364" data-name="그룹 364" xmlns="http://www.w3.org/2000/svg" xmlns:xlink="http://www.w3.org/1999/xlink" width="26.016" height="26.146" viewBox="0 0 26.016 26.146">
  <defs>
    <clipPath id="clip-path">
      <path id="패스_46" data-name="패스 46" d="M0,0H26.016V26.146H0Z" fill="none" clip-rule="evenodd"/>
    </clipPath>
  </defs>
  <g id="그룹_361" data-name="그룹 361" clip-path="url(#clip-path)">
    <g id="그룹_360" data-name="그룹 360">
      <path id="패스_45" data-name="패스 45" d="M0,0H26.016V26.146H0Z" fill="none"/>
    </g>
  </g>
  <g id="그룹_363" data-name="그룹 363" clip-path="url(#clip-path)">
    <g id="그룹_362" data-name="그룹 362" transform="translate(2.168 3.268)">
      <path id="패스_47" data-name="패스 47" d="M17.718,3A6.478,6.478,0,0,0,12.84,5.277,6.478,6.478,0,0,0,7.962,3,5.919,5.919,0,0,0,2,8.992c0,4.118,3.686,7.473,9.268,12.572l1.572,1.427,1.572-1.438c5.583-5.088,9.268-8.443,9.268-12.561A5.919,5.919,0,0,0,17.718,3Zm-4.77,16.94-.108.109-.108-.109c-5.16-4.7-8.563-7.8-8.563-10.949A3.714,3.714,0,0,1,7.962,5.179a4.237,4.237,0,0,1,3.87,2.571h2.027a4.211,4.211,0,0,1,3.859-2.571,3.714,3.714,0,0,1,3.794,3.813C21.512,12.14,18.108,15.245,12.948,19.94Z" transform="translate(-2 -3)"/>
    </g>
  </g>
</svg>
