<svg xmlns="http://www.w3.org/2000/svg" width="31.055" height="32.175" viewBox="0 0 31.055 32.175">
  <g id="그룹_18490" data-name="그룹 18490" transform="translate(-920 -4248)">
    <g id="타원_60" data-name="타원 60" transform="translate(927.098 4248)" fill="#fff" stroke="#191919" stroke-width="2">
      <circle cx="8.429" cy="8.429" r="8.429" stroke="none"/>
      <circle cx="8.429" cy="8.429" r="7.429" fill="none"/>
    </g>
    <g id="패스_7704" data-name="패스 7704" transform="translate(920 4263.084)" fill="#fff">
      <path d="M 30.05487442016602 15.96016788482666 L 15.52743530273438 15.96016788482666 L 1.00000524520874 15.96016788482666 L 1.00000524520874 15.52743816375732 C 1.00000524520874 11.64701747894287 2.511125326156616 7.998857975006104 5.254985332489014 5.254987716674805 C 7.998855113983154 2.511117935180664 11.64701557159424 0.9999978542327881 15.52743530273438 0.9999978542327881 C 19.40785598754883 0.9999978542327881 23.05601501464844 2.511117935180664 25.79988479614258 5.254987716674805 C 28.54375457763672 7.998857975006104 30.05487442016602 11.64701747894287 30.05487442016602 15.52743816375732 L 30.05487442016602 15.96016788482666 Z" stroke="none"/>
      <path d="M 15.52743530273438 1.999998092651367 C 11.91412544250488 1.999998092651367 8.517086029052734 3.407097816467285 5.962085723876953 5.962087631225586 C 3.541208267211914 8.382975578308105 2.150882720947266 11.55966758728027 2.011594772338867 14.96016788482666 L 29.04326438903809 14.96016788482666 C 28.90397644042969 11.55966758728027 27.51365280151367 8.382975578308105 25.09277534484863 5.962087631225586 C 22.53778457641602 3.407097816467285 19.14074516296387 1.999998092651367 15.52743530273438 1.999998092651367 M 15.52743530273438 -1.9073486328125e-06 C 24.10300445556641 -1.9073486328125e-06 31.05486488342285 6.951868057250977 31.05486488342285 15.52743816375732 C 31.05486488342285 16.66798782348633 31.05486488342285 16.96016693115234 31.05486488342285 16.96016693115234 C 31.05486488342285 16.96016693115234 22.25857543945312 16.96016693115234 15.52743530273438 16.96016693115234 C 9.758995056152344 16.96016693115234 -3.814697265625e-06 16.96016693115234 -3.814697265625e-06 16.96016693115234 L -3.814697265625e-06 17.09088706970215 C -3.814697265625e-06 17.09088706970215 -3.814697265625e-06 16.82404327392578 -3.814697265625e-06 15.52743816375732 C -3.814697265625e-06 6.951868057250977 6.951866149902344 -1.9073486328125e-06 15.52743530273438 -1.9073486328125e-06 Z" stroke="none" fill="#191919"/>
    </g>
  </g>
</svg>
