<svg xmlns="http://www.w3.org/2000/svg" width="35" height="36.262" viewBox="0 0 35 36.262">
  <g id="그룹_18490" data-name="그룹 18490" transform="translate(-920 -4248)">
    <g id="타원_60" data-name="타원 60" transform="translate(928 4248)" fill="#191919" stroke="#191919" stroke-width="2">
      <circle cx="9.5" cy="9.5" r="9.5" stroke="none"/>
      <circle cx="9.5" cy="9.5" r="8.5" fill="none"/>
    </g>
    <g id="패스_7704" data-name="패스 7704" transform="translate(920 4265)" fill="#191919">
      <path d="M 34 18.11474990844727 L 17.5 18.11474990844727 L 1 18.11474990844727 L 1 17.5 C 1 13.09269046783447 2.716300010681152 8.949179649353027 5.83273983001709 5.83273983001709 C 8.949179649353027 2.716300010681152 13.09269046783447 1 17.5 1 C 21.90731048583984 1 26.05081939697266 2.716300010681152 29.16725921630859 5.83273983001709 C 32.28369903564453 8.949179649353027 34 13.09269046783447 34 17.5 L 34 18.11474990844727 Z" stroke="none"/>
      <path d="M 17.5 2 C 13.35980033874512 2 9.467409133911133 3.612279891967773 6.539850234985352 6.539850234985352 C 3.703229904174805 9.376460075378418 2.101451873779297 13.1187629699707 2.004661560058594 17.11474990844727 L 32.99533843994141 17.11474990844727 C 32.8985481262207 13.1187629699707 31.2967700958252 9.376460075378418 28.46014976501465 6.539850234985352 C 25.53258895874023 3.612279891967773 21.64019966125488 2 17.5 2 M 17.5 0 C 27.16497993469238 0 35 7.835020065307617 35 17.5 C 35 18.78544044494629 35 19.11474990844727 35 19.11474990844727 C 35 19.11474990844727 25.08625030517578 19.11474990844727 17.5 19.11474990844727 C 10.99875068664551 19.11474990844727 0 19.11474990844727 0 19.11474990844727 L 0 19.26207160949707 C 0 19.26207160949707 0 18.96132278442383 0 17.5 C 0 7.835020065307617 7.835020065307617 0 17.5 0 Z" stroke="none" fill="#191919"/>
    </g>
  </g>
</svg>
