<svg xmlns="http://www.w3.org/2000/svg" width="30.849" height="36.619" viewBox="0 0 30.849 36.619">
  <g id="그룹_18486" data-name="그룹 18486" transform="translate(-789 -4250.412)">
    <g id="패스_7702" data-name="패스 7702" transform="translate(789 4259)" fill="none">
      <path d="M2.008,0h26.62l2.221,28.031H0Z" stroke="none"/>
      <path d="M 3.870197296142578 2.000001907348633 L 2.14842414855957 26.03140068054199 L 28.68439674377441 26.03140068054199 L 26.78042221069336 2.000001907348633 L 3.870197296142578 2.000001907348633 M 2.008359909057617 1.9073486328125e-06 L 28.62822914123535 1.9073486328125e-06 L 30.84911918640137 28.03140068054199 L 0 28.03140068054199 L 2.008359909057617 1.9073486328125e-06 Z" stroke="none" fill="#191919"/>
    </g>
    <path id="패스_7703" data-name="패스 7703" d="M-4.83,3.272c0-.681-.015-1.52,0-2.859.006-.317,0-1.028,0-1.844.015-1.356,0-2.932,0-4.311.579-2.043,3.172-2.484,4.7-2.484,1.664,0,4.058.371,4.867,2.484-.005,1.326,0,2.058,0,4.311v4.7" transform="translate(804.473 4259.639)" fill="none" stroke="#191919" stroke-linecap="square" stroke-width="2"/>
  </g>
</svg>
